<svg width="16" height="16" viewBox="0 0 16 16" fill="none" xmlns="http://www.w3.org/2000/svg">
<path d="M10.2246 1.36328C11.1122 1.66103 11.9305 2.13377 12.6318 2.75391C12.4846 3.08342 12.4031 3.44014 12.3936 3.80371C12.3803 4.3109 12.5079 4.81264 12.7617 5.25195C13.0155 5.69113 13.3861 6.05115 13.832 6.29297C14.1511 6.46602 14.5001 6.57209 14.8584 6.60938C14.949 7.05862 14.999 7.52302 14.999 8C14.999 8.47682 14.9489 8.94107 14.8584 9.39062C14.5002 9.42796 14.1511 9.53401 13.832 9.70703C13.3862 9.94884 13.0165 10.3099 12.7627 10.749C12.5089 11.1882 12.3814 11.6892 12.3945 12.1963C12.404 12.5593 12.4861 12.915 12.6328 13.2441C11.9312 13.8649 11.1128 14.3378 10.2246 14.6357C10.0131 14.3438 9.74622 14.0942 9.43652 13.9043C9.00398 13.6391 8.5064 13.498 7.99902 13.498C7.4916 13.4981 6.99408 13.639 6.56152 13.9043C6.25159 14.0944 5.98409 14.3435 5.77246 14.6357C4.88471 14.3377 4.06659 13.8647 3.36523 13.2441C3.51216 12.9149 3.59495 12.5595 3.60449 12.1963C3.61773 11.6891 3.49014 11.1874 3.23633 10.748C2.98261 10.3091 2.61264 9.94881 2.16699 9.70703C1.84772 9.53389 1.49812 9.42688 1.13965 9.38965C1.04961 8.94113 1 8.477 1 8C1 7.52294 1.04902 7.05817 1.13965 6.6084C1.49819 6.57107 1.84771 6.46527 2.16699 6.29199C2.61255 6.05015 2.9827 5.68993 3.23633 5.25098C3.48999 4.81185 3.61763 4.31067 3.60449 3.80371C3.59506 3.44029 3.51225 3.08433 3.36523 2.75488C4.06656 2.13449 4.88479 1.66124 5.77246 1.36328C5.98416 1.65575 6.25137 1.90548 6.56152 2.0957C6.99408 2.36099 7.4916 2.50093 7.99902 2.50098C8.50639 2.50098 9.00398 2.3609 9.43652 2.0957C9.74644 1.90563 10.013 1.65546 10.2246 1.36328ZM10.167 2.17188C9.57145 2.70537 8.79955 3.0004 8 3L7.70117 2.98633C7.00958 2.92294 6.35323 2.63877 5.83203 2.17188L5.58789 1.95312L5.29004 2.08984C4.9205 2.25949 4.56771 2.46358 4.23633 2.69922L3.96973 2.88965L4.03711 3.20996C4.18058 3.89437 4.09824 4.60411 3.80762 5.23438L3.66992 5.5C3.27058 6.19237 2.6296 6.71286 1.87012 6.96191L1.55762 7.06445L1.52734 7.3916C1.48985 7.79632 1.48985 8.20368 1.52734 8.6084L1.55762 8.93555L1.87012 9.03809C2.62398 9.28505 3.26002 9.79989 3.66016 10.4844L3.66992 10.5C4.07935 11.209 4.19615 12.0247 4.03613 12.791L3.96973 13.1113L4.23633 13.3008C4.56774 13.5363 4.92042 13.7404 5.29004 13.9102L5.58789 14.0469L5.83203 13.8281C6.35323 13.3612 7.00958 13.0771 7.70117 13.0137L8 13C8.81919 13 9.58484 13.3061 10.168 13.8281L10.4121 14.0469L10.71 13.9102C11.0796 13.7404 11.4323 13.5363 11.7637 13.3008L12.0303 13.1104L11.9629 12.79C11.8194 12.1056 11.9018 11.3959 12.1924 10.7656L12.3301 10.5C12.7294 9.80763 13.3704 9.28714 14.1299 9.03809L14.4424 8.93555L14.4727 8.6084C14.5102 8.20368 14.5102 7.79632 14.4727 7.3916L14.4424 7.06445L14.1299 6.96191C13.3701 6.71301 12.7286 6.19253 12.3291 5.5L12.1914 5.23438C11.9008 4.60408 11.8194 3.89438 11.9629 3.20996L12.0303 2.88965L11.7627 2.69922C11.4314 2.46362 11.0785 2.25947 10.709 2.08984L10.4111 1.95312L10.167 2.17188ZM8 6.25C8.46413 6.25 8.90912 6.43451 9.2373 6.7627C9.56549 7.09088 9.75 7.53588 9.75 8C9.75 8.46412 9.56549 8.90912 9.2373 9.2373C8.90912 9.56549 8.46413 9.75 8 9.75C7.53588 9.75 7.09088 9.56549 6.7627 9.2373C6.43451 8.90912 6.25 8.46412 6.25 8C6.25 7.53587 6.43451 7.09088 6.7627 6.7627C7.09088 6.43451 7.53587 6.25 8 6.25ZM8 6.75C7.66848 6.75 7.35063 6.88179 7.11621 7.11621C6.88179 7.35063 6.75 7.66848 6.75 8C6.75 8.33152 6.88179 8.64937 7.11621 8.88379C7.35063 9.1182 7.66848 9.25 8 9.25C8.33152 9.25 8.64937 9.1182 8.88379 8.88379C9.11821 8.64937 9.25 8.33152 9.25 8C9.25 7.66848 9.11821 7.35063 8.88379 7.11621C8.64937 6.88179 8.33152 6.75 8 6.75Z" stroke="#525866"/>
</svg>
