<svg width="14" height="16" viewBox="0 0 14 16" fill="none" xmlns="http://www.w3.org/2000/svg">
<path d="M0.999023 1H9.79297L13.25 4.45703V14.748C13.2502 14.7808 13.2437 14.8134 13.2314 14.8438C13.2191 14.8742 13.2008 14.9024 13.1777 14.9258C13.1548 14.949 13.1277 14.9677 13.0977 14.9805C13.0675 14.9932 13.0347 14.9997 13.002 15H0.998047C0.93246 14.9995 0.869648 14.9731 0.823242 14.9268C0.788504 14.892 0.764705 14.8482 0.754883 14.8008L0.75 14.752V1.24414L0.754883 1.19531C0.777647 1.0859 0.875786 1.00011 0.999023 1ZM1.25 14.5H12.75V4.5H9.75V1.5H1.25V14.5ZM7 6.375C6.56902 6.375 6.15533 6.54584 5.85059 6.85059C5.54584 7.15533 5.375 7.56902 5.375 8C5.375 8.43098 5.54584 8.84467 5.85059 9.14941C6.15533 9.45416 6.56902 9.625 7 9.625C7.43098 9.625 7.84467 9.45416 8.14941 9.14941C8.45416 8.84467 8.625 8.43098 8.625 8C8.625 7.56902 8.45416 7.15533 8.14941 6.85059C7.84467 6.54584 7.43098 6.375 7 6.375ZM6.75 10.1436L6.39258 10.0371C6.0737 9.94197 5.78164 9.77278 5.54004 9.54395L5.26953 9.28809L4.94629 9.47461L4.63477 9.65332L4.38477 9.2207L4.69629 9.04199L5.01855 8.85645L4.93262 8.49316C4.85568 8.16922 4.85571 7.83176 4.93262 7.50781L5.01855 7.14551L4.69629 6.95898L4.38477 6.7793L4.63477 6.3457L4.94629 6.52539L5.26953 6.71191L5.54004 6.45605C5.78164 6.22722 6.0737 6.05803 6.39258 5.96289L6.75 5.85645V5.125H7.25V5.85645L7.60742 5.96289C7.92945 6.05853 8.221 6.22987 8.45996 6.45605L8.73047 6.71191L9.05371 6.52539L9.36426 6.3457L9.61426 6.7793L9.30371 6.95898L8.98145 7.14551L9.06738 7.50684C9.14432 7.83081 9.14432 8.16919 9.06738 8.49316L8.98145 8.85449L9.30371 9.04102L9.61426 9.21973L9.36426 9.65332L9.05371 9.47461L8.73047 9.28809L8.45996 9.54395C8.21836 9.77278 7.9263 9.94197 7.60742 10.0371L7.25 10.1436V10.875H6.75V10.1436Z" stroke="#525866"/>
</svg>
