<svg width="14" height="17" viewBox="0 0 14 17" fill="none" xmlns="http://www.w3.org/2000/svg">
<path d="M5.5 11.5244C4.35753 11.6392 3.28394 12.1457 2.46484 12.9648C1.64577 13.7839 1.14018 14.8576 1.02539 16H0.524414C0.640819 14.7247 1.19843 13.5242 2.11133 12.6113C3.02424 11.6984 4.22469 11.1398 5.5 11.0234V11.5244ZM10.5 11.875C10.069 11.875 9.65533 12.0458 9.35059 12.3506C9.04584 12.6553 8.875 13.069 8.875 13.5C8.875 13.931 9.04584 14.3447 9.35059 14.6494C9.65533 14.9542 10.069 15.125 10.5 15.125C10.931 15.125 11.3447 14.9542 11.6494 14.6494C11.9542 14.3447 12.125 13.931 12.125 13.5C12.125 13.069 11.9542 12.6553 11.6494 12.3506C11.3447 12.0458 10.931 11.875 10.5 11.875ZM6 1.25C8.21011 1.25 10 3.03989 10 5.25C10 7.46011 8.21011 9.25 6 9.25C3.78989 9.25 2 7.46011 2 5.25C2 3.03989 3.78989 1.25 6 1.25ZM6 1.75C4.06636 1.75 2.5 3.31636 2.5 5.25C2.5 7.18364 4.06636 8.75 6 8.75C7.93364 8.75 9.5 7.18364 9.5 5.25C9.5 3.31636 7.93364 1.75 6 1.75ZM10.25 15.6436L9.89258 15.5371C9.5737 15.442 9.28164 15.2728 9.04004 15.0439L8.76953 14.7881L8.44629 14.9746L8.13477 15.1533L7.88477 14.7207L8.19629 14.542L8.51855 14.3564L8.43262 13.9932C8.35568 13.6692 8.35571 13.3318 8.43262 13.0078L8.51855 12.6455L8.19629 12.459L7.88477 12.2793L8.13477 11.8457L8.44629 12.0254L8.76953 12.2119L9.04004 11.9561C9.28164 11.7272 9.5737 11.558 9.89258 11.4629L10.25 11.3564V10.625H10.75V11.3564L11.1074 11.4629C11.4294 11.5585 11.721 11.7299 11.96 11.9561L12.2305 12.2119L12.5537 12.0254L12.8643 11.8457L13.1143 12.2793L12.8037 12.459L12.4814 12.6445L12.5674 13.0068C12.6443 13.3308 12.6443 13.6692 12.5674 13.9932L12.4814 14.3555L12.8037 14.541L13.1143 14.7197L12.8643 15.1533L12.5537 14.9746L12.2305 14.7881L11.96 15.0439C11.7184 15.2728 11.4263 15.442 11.1074 15.5371L10.75 15.6436V16.375H10.25V15.6436Z" stroke="#525866"/>
</svg>
