<svg width="17" height="15" viewBox="0 0 17 15" fill="none" xmlns="http://www.w3.org/2000/svg">
<path d="M12.5371 7L15.4365 14.25H14.8965L14.1221 12.3145L13.9961 12H10.252L10.126 12.3145L9.35254 14.25H8.81445L11.7129 7H12.5371ZM11.6611 8.47754L10.7256 10.8145L10.4512 11.5H13.7969L13.5234 10.8145L12.5889 8.47852L12.125 7.31738L11.6611 8.47754ZM6 1V2.5H10.5V3H9.16309L9.0498 3.34277C8.49243 5.02051 7.60226 6.56897 6.43359 7.89551L6.10547 8.26758L6.47656 8.59863C6.93454 9.00726 7.42524 9.37674 7.94141 9.70801L7.75098 10.1826C7.16122 9.81048 6.60349 9.3892 6.08496 8.92188L5.74902 8.62012L5.41406 8.92285C4.25568 9.97118 2.90466 10.7806 1.43848 11.3105L1.30469 10.8271C2.67326 10.3268 3.93645 9.57223 5.02539 8.59961L5.39648 8.26855L5.06738 7.89551C4.4194 7.16193 3.85732 6.35792 3.38965 5.5H3.96289C4.3673 6.20558 4.83847 6.87099 5.37207 7.48535L5.75 7.9209L6.12793 7.48535C7.1041 6.36016 7.87352 5.07106 8.40039 3.67773L8.65625 3.00098H7.93262L1 3V2.5H5.5V1H6Z" stroke="#525866"/>
</svg>
