<?xml version="1.0" encoding="UTF-8"?>
<svg id="Layer_2" xmlns="http://www.w3.org/2000/svg" version="1.1" viewBox="0 0 20.4 20.4">
  <!-- Generator: Adobe Illustrator 29.3.1, SVG Export Plug-In . SVG Version: 2.1.0 Build 151)  -->
  <defs>
    <style>
      .st0 {
        fill: #fff;
      }
    </style>
  </defs>
  <g id="Layer_1-2">
    <path class="st0" d="M17.4,3c-.3-.3-.6-.3-.9-.2L3.3,7.1c-.4.1-.6.5-.6.9s.3.8.7.9l6.3,1.8,1.8,6.3c.1.4.5.7.9.7h0c.4,0,.7-.2.9-.6l4.4-13.2c.1-.3,0-.7-.2-.9ZM15.4,4.2l-5.5,5.5-5.9-1.7,11.4-3.8ZM16.2,4.9l-3.8,11.4-1.7-5.9,5.5-5.5h0Z"/>
  </g>
</svg>