<svg width="20" height="20" viewBox="0 0 20 20" fill="none" xmlns="http://www.w3.org/2000/svg">
<path d="M12.9883 8.48622H17.0558C17.4405 8.48622 17.7521 8.79668 17.7521 9.18026V12.8788C17.7518 13.2144 17.6854 13.5467 17.5567 13.8566C17.428 14.1666 17.2395 14.4482 17.002 14.6853C16.7645 14.9224 16.4825 15.1104 16.1724 15.2385C15.8622 15.3667 15.5298 15.4325 15.1942 15.4322H15.1829C14.8473 15.4325 14.5149 15.3667 14.2047 15.2385C13.8946 15.1104 13.6127 14.9224 13.3751 14.6853C13.1376 14.4482 12.9491 14.1666 12.8204 13.8566C12.6917 13.5467 12.6253 13.2144 12.625 12.8788V8.85067C12.625 8.64932 12.7881 8.48622 12.9883 8.48622ZM15.7386 7.75506C16.6475 7.75506 17.3854 7.01828 17.3854 6.11051C17.3854 5.20163 16.6475 4.46484 15.7375 4.46484C14.8275 4.46484 14.0896 5.20163 14.0896 6.11051C14.0896 7.01828 14.8275 7.75506 15.7375 7.75506H15.7386Z" fill="#5059C9"/>
<path d="M10.607 7.75254C10.9194 7.75298 11.2288 7.69187 11.5176 7.57271C11.8063 7.45354 12.0687 7.27866 12.2899 7.05804C12.511 6.83742 12.6865 6.57539 12.8064 6.28692C12.9262 5.99846 12.9881 5.6892 12.9884 5.37683C12.9882 5.06427 12.9265 4.7548 12.8066 4.46613C12.6868 4.17746 12.5112 3.91525 12.2899 3.6945C12.0686 3.47375 11.806 3.29878 11.517 3.17961C11.2281 3.06045 10.9185 2.99941 10.6059 3C10.2936 2.99971 9.98436 3.06092 9.69574 3.18015C9.40712 3.29938 9.14481 3.4743 8.92379 3.6949C8.70276 3.9155 8.52736 4.17748 8.40758 4.46588C8.28781 4.75427 8.22601 5.06343 8.22571 5.37571C8.22571 6.68842 9.29095 7.75254 10.6059 7.75254H10.607ZM13.7814 8.48369H7.06598C6.88388 8.48812 6.71099 8.56465 6.58528 8.69647C6.45957 8.82829 6.39134 9.00463 6.39556 9.18673V13.405C6.37111 14.4983 6.78159 15.5566 7.53685 16.3475C8.29211 17.1384 9.3304 17.5972 10.4237 17.6232C11.5172 17.5975 12.5557 17.1388 13.3112 16.3479C14.0667 15.557 14.4774 14.4985 14.4529 13.405V9.18673C14.455 9.09647 14.4393 9.00668 14.4067 8.92249C14.3741 8.8383 14.3252 8.76137 14.2628 8.69608C14.2005 8.63079 14.1258 8.57843 14.0432 8.54199C13.9606 8.50555 13.8717 8.48574 13.7814 8.48369Z" fill="#7B83EB"/>
<path opacity="0.1" d="M10.7907 8.48438V14.3955C10.7898 14.5729 10.7188 14.7428 10.5933 14.8682C10.4677 14.9935 10.2977 15.0642 10.1203 15.0648H6.71755C6.50465 14.5371 6.39505 13.9735 6.39472 13.4045V9.18741C6.39262 9.09721 6.40835 9.00747 6.44098 8.92335C6.47361 8.83922 6.52252 8.76236 6.5849 8.69717C6.64727 8.63197 6.7219 8.57971 6.8045 8.54339C6.88709 8.50707 6.97604 8.4874 7.06626 8.4855H10.7895L10.7907 8.48438Z" fill="black"/>
<path opacity="0.2" d="M10.4256 8.4855V14.7622C10.4241 14.9395 10.353 15.109 10.2276 15.2342C10.1021 15.3595 9.93245 15.4303 9.7552 15.4315H6.89244C6.76595 15.1995 6.66524 14.9543 6.5921 14.7003C6.46416 14.2811 6.39896 13.8451 6.39862 13.4068V9.18629C6.39653 9.09617 6.41221 9.00653 6.44478 8.92248C6.47734 8.83843 6.52615 8.76162 6.58841 8.69643C6.65066 8.63125 6.72516 8.57897 6.80762 8.54259C6.89009 8.5062 6.97892 8.48642 7.06904 8.48438H10.4267L10.4256 8.4855Z" fill="black"/>
<path opacity="0.2" d="M10.4256 8.4855V14.0311C10.4241 14.2083 10.353 14.3779 10.2276 14.5031C10.1021 14.6283 9.93245 14.6992 9.7552 14.7003H6.5921C6.46416 14.2811 6.39896 13.8451 6.39862 13.4068V9.18629C6.39653 9.09617 6.41221 9.00653 6.44478 8.92248C6.47734 8.83843 6.52615 8.76162 6.58841 8.69643C6.65066 8.63125 6.72516 8.57897 6.80762 8.54259C6.89009 8.5062 6.97892 8.48642 7.06904 8.48438H10.4267L10.4256 8.4855Z" fill="black"/>
<path opacity="0.2" d="M10.0573 8.4855V14.0311C10.0558 14.2083 9.98464 14.3779 9.8592 14.5031C9.73376 14.6283 9.56409 14.6992 9.38684 14.7003H6.58819C6.46025 14.2811 6.39506 13.8451 6.39472 13.4068V9.18629C6.39262 9.09617 6.40831 9.00653 6.44087 8.92248C6.47344 8.83843 6.52224 8.76162 6.5845 8.69643C6.64676 8.63125 6.72125 8.57897 6.80372 8.54259C6.88619 8.5062 6.97502 8.48642 7.06513 8.48438L10.0573 8.4855Z" fill="black"/>
<path opacity="0.1" d="M10.7874 6.59507V7.74693C10.7255 7.7503 10.667 7.75368 10.604 7.75368C10.5422 7.75368 10.4837 7.7503 10.4207 7.74693C9.9183 7.70821 9.44119 7.511 9.05811 7.18371C8.67502 6.85641 8.40574 6.41595 8.28906 5.92578H10.117C10.2942 5.92637 10.464 5.99688 10.5896 6.122C10.7151 6.24711 10.7862 6.41672 10.7874 6.59395V6.59507Z" fill="black"/>
<path opacity="0.2" d="M10.4237 6.96114V7.74741C9.98663 7.71398 9.56733 7.56047 9.21203 7.30382C8.85672 7.04717 8.57923 6.69735 8.41016 6.29297H9.75436C9.9314 6.29385 10.101 6.3645 10.2263 6.48958C10.3515 6.61466 10.4225 6.7841 10.4237 6.96114Z" fill="black"/>
<path opacity="0.2" d="M10.4237 6.96114V7.74741C9.98663 7.71398 9.56733 7.56047 9.21203 7.30382C8.85672 7.04717 8.57923 6.69735 8.41016 6.29297H9.75436C9.9314 6.29385 10.101 6.3645 10.2263 6.48958C10.3515 6.61466 10.4225 6.7841 10.4237 6.96114Z" fill="black"/>
<path opacity="0.2" d="M10.0581 6.95835V7.68614C9.69263 7.59984 9.35281 7.42826 9.06639 7.18544C8.77997 6.94262 8.5551 6.63546 8.41016 6.28906H9.38878C9.56602 6.28995 9.73574 6.36075 9.86106 6.48607C9.98639 6.6114 10.0572 6.78112 10.0581 6.95835Z" fill="black"/>
<path d="M2.67154 6.28906H9.38583C9.75703 6.28906 10.0574 6.5894 10.0574 6.95948V13.6614C10.0574 13.7495 10.04 13.8368 10.0062 13.9182C9.97247 13.9996 9.92298 14.0736 9.86061 14.1358C9.79824 14.1981 9.7242 14.2475 9.64273 14.2811C9.56126 14.3147 9.47396 14.332 9.38583 14.3318H2.67042C2.58238 14.3318 2.4952 14.3145 2.41386 14.2808C2.33252 14.2471 2.25861 14.1977 2.19636 14.1354C2.13411 14.0732 2.08472 13.9993 2.05103 13.9179C2.01734 13.8366 2 13.7494 2 13.6614V6.95948C2 6.58827 2.30034 6.28906 2.67154 6.28906Z" fill="url(#paint0_linear_6173_145106)"/>
<path d="M7.79212 8.84147H6.45016V12.4894H5.59527V8.84147H4.25781V8.13281H7.791L7.79212 8.84147Z" fill="white"/>
<defs>
<linearGradient id="paint0_linear_6173_145106" x1="3.39933" y1="5.766" x2="8.64342" y2="14.8639" gradientUnits="userSpaceOnUse">
<stop stop-color="#5A62C3"/>
<stop offset="0.5" stop-color="#4D55BD"/>
<stop offset="1" stop-color="#3940AB"/>
</linearGradient>
</defs>
</svg>
