<?xml version="1.0" encoding="UTF-8"?><svg id="Layer_2" xmlns="http://www.w3.org/2000/svg" viewBox="0 0 20 20"><g id="Layer_1-2"><path d="M11.22,8.45c-.1,0-.18.02-.23.06-.07.04-.12.1-.17.19l-.85,1.53-.85-1.53c-.05-.09-.1-.16-.16-.2-.06-.04-.14-.06-.25-.06-.12,0-.21.03-.27.1s-.1.15-.1.27v2.39c0,.12.03.2.09.27.06.07.15.1.27.1s.21-.03.27-.1c.06-.07.09-.15.09-.27v-1.31l.59,1.03c.04.06.08.11.12.14.05.03.11.05.18.05s.13-.02.18-.05c.05-.03.08-.08.12-.14l.6-1.05v1.33c0,.12.03.2.1.27.06.07.15.1.26.1.12,0,.21-.03.27-.1.06-.07.09-.15.09-.27v-2.39c0-.12-.03-.2-.09-.27-.07-.06-.15-.1-.27-.1Z" style="fill:none;"/><path d="M7.12,9.75l-.49-.11c-.14-.03-.23-.06-.28-.1-.05-.05-.07-.1-.07-.16s.02-.11.05-.16c.04-.05.1-.08.18-.11.07-.03.16-.04.27-.04.1,0,.2.01.31.03.1.02.2.05.28.08.09.04.17.05.23.03.06-.01.11-.05.15-.1.04-.05.06-.1.07-.17,0-.06,0-.12-.03-.18-.03-.07-.08-.11-.15-.15-.11-.06-.24-.11-.4-.15-.15-.03-.31-.05-.45-.05-.2,0-.36.03-.52.08-.16.05-.29.12-.41.2-.11.08-.19.19-.26.31-.06.12-.09.26-.09.41,0,.23.06.41.19.55.14.14.34.24.62.31l.51.1c.13.03.23.07.28.1.05.04.08.09.08.16s-.04.13-.11.18c-.08.05-.21.08-.4.08-.12,0-.25-.02-.39-.05-.14-.03-.26-.07-.37-.12-.08-.04-.16-.05-.22-.03-.06.02-.12.06-.16.11s-.06.11-.07.18c0,.07,0,.13.03.2s.08.11.16.15c.09.05.19.08.31.11s.23.06.36.07c.12.02.24.03.36.03.2,0,.37-.02.53-.07s.29-.11.4-.2c.12-.08.2-.19.26-.31.06-.12.09-.25.09-.4,0-.22-.07-.4-.21-.54-.14-.14-.34-.24-.62-.3Z" style="fill:none;"/><path d="M13.72,9.75l-.49-.11c-.14-.03-.23-.06-.28-.1-.05-.05-.08-.1-.08-.16s.02-.11.06-.16.1-.08.17-.11c.08-.03.17-.04.27-.04.1,0,.2.01.3.03.1.02.2.05.29.08.09.04.16.05.23.03.07-.01.12-.05.16-.1.04-.05.07-.1.07-.17,0-.06,0-.12-.04-.18-.03-.07-.08-.11-.14-.15-.11-.06-.24-.11-.4-.15-.15-.03-.31-.05-.45-.05-.19,0-.36.03-.52.08-.16.05-.29.12-.4.2-.11.08-.2.19-.26.31-.07.12-.1.26-.1.41,0,.23.07.41.2.55.14.14.34.24.62.31l.5.1c.14.03.23.07.29.1s.08.09.08.16-.04.13-.12.18c-.07.05-.2.08-.39.08-.12,0-.25-.02-.39-.05-.14-.03-.26-.07-.37-.12-.08-.04-.16-.05-.22-.03-.07.02-.12.06-.16.11s-.07.11-.07.18c-.01.07,0,.13.03.2s.08.11.16.15c.09.05.19.08.31.11.11.03.23.06.35.07.12.02.25.03.36.03.2,0,.37-.02.53-.07.16-.05.29-.11.4-.2.11-.08.2-.19.26-.31.06-.12.09-.25.09-.4,0-.22-.07-.4-.21-.54-.14-.14-.34-.24-.62-.3Z" style="fill:none;"/><path d="M10,3.5c-3.59,0-6.5,2.91-6.5,6.5,0,1.03.26,1.92.7,2.75.17.32.22.7.12,1.06l-.46,1.54c-.15.49.31.96.81.81l1.54-.46c.35-.1.73-.05,1.06.12.83.43,1.72.69,2.74.69,3.59,0,6.5-2.91,6.5-6.5s-2.91-6.5-6.5-6.5ZM7.86,10.99c-.06.12-.14.23-.26.31-.11.09-.25.16-.4.2s-.33.07-.53.07c-.12,0-.24,0-.36-.03-.12-.01-.25-.04-.36-.07-.11-.03-.21-.07-.31-.11-.08-.04-.13-.08-.16-.15-.03-.07-.04-.13-.03-.2,0-.07.03-.13.07-.18s.1-.09.16-.11c.06-.01.14,0,.22.03.11.05.23.09.37.12.14.03.27.05.39.05.19,0,.32-.03.4-.08.07-.05.11-.11.11-.18s-.03-.12-.08-.16-.15-.07-.28-.1l-.51-.1c-.28-.07-.48-.16-.62-.31-.13-.14-.19-.33-.19-.55,0-.15.03-.29.09-.41.06-.12.15-.22.26-.31.12-.08.25-.16.41-.2.16-.05.33-.08.52-.08.14,0,.3.02.45.05.16.04.29.08.4.15.07.04.12.08.15.15.03.06.04.12.03.18,0,.07-.03.12-.07.17-.04.05-.09.08-.15.1-.06.01-.14,0-.23-.03-.08-.04-.18-.07-.28-.08-.1-.02-.21-.03-.31-.03-.1,0-.2.01-.27.04-.08.03-.14.07-.18.11-.03.05-.05.1-.05.16s.03.11.07.16c.05.04.14.07.28.1l.49.11c.28.06.49.16.62.3.14.14.21.32.21.54,0,.15-.03.28-.09.4ZM11.58,11.2c0,.12-.03.2-.09.27-.06.07-.15.1-.27.1-.11,0-.2-.03-.26-.1-.07-.07-.1-.15-.1-.27v-1.33l-.6,1.05c-.04.06-.08.11-.12.14-.05.03-.1.05-.18.05s-.13-.02-.18-.05c-.05-.03-.08-.08-.12-.14l-.59-1.03v1.31c0,.12-.03.2-.09.27-.06.07-.15.1-.27.1s-.2-.03-.27-.1c-.06-.07-.09-.15-.09-.27v-2.39c0-.12.03-.2.1-.27s.16-.1.27-.1c.1,0,.19.02.25.06s.11.1.16.19l.85,1.53.85-1.53c.05-.09.1-.16.17-.2.06-.04.14-.06.23-.06.12,0,.2.03.27.1.06.06.09.15.09.27,0,0,0,2.39,0,2.39ZM14.46,10.99c-.06.12-.15.23-.26.31-.11.09-.25.16-.4.2-.16.05-.33.07-.53.07-.12,0-.24,0-.36-.03-.12-.01-.24-.04-.35-.07-.12-.03-.21-.07-.31-.11-.08-.04-.13-.08-.16-.15-.03-.07-.05-.13-.03-.2,0-.07.03-.13.07-.18.04-.05.09-.09.16-.11.07-.01.14,0,.22.03.11.05.23.09.37.12.14.03.27.05.39.05.19,0,.32-.03.39-.08.08-.05.12-.11.12-.18s-.03-.12-.08-.16-.15-.07-.29-.1l-.5-.1c-.28-.07-.48-.16-.62-.31-.13-.14-.2-.33-.2-.55,0-.15.03-.29.1-.41.07-.12.15-.22.26-.31s.25-.16.4-.2c.16-.05.33-.08.52-.08.15,0,.31.02.45.05.16.04.29.08.4.15.07.04.12.08.14.15.03.06.05.12.04.18,0,.07-.03.12-.07.17-.04.05-.09.08-.16.1-.07.01-.14,0-.23-.03-.08-.04-.18-.07-.29-.08-.1-.02-.2-.03-.3-.03-.1,0-.2.01-.27.04-.07.03-.13.07-.17.11s-.06.1-.06.16.03.11.08.16c.05.04.14.07.28.1l.49.11c.28.06.49.16.62.3.14.14.21.32.21.54,0,.15-.03.28-.09.4Z" style="fill:#fff;"/></g></svg>